<svg width="124" height="185" viewBox="0 0 124 185" fill="none" xmlns="http://www.w3.org/2000/svg">
<path d="M123.838 155.339C123.189 155.015 122.013 156.475 121.526 157.002C121.364 157.165 121.201 157.286 121.08 157.489C120.958 157.651 120.796 157.814 120.674 157.935C120.471 158.138 120.35 158.26 120.188 158.381C120.025 158.462 119.904 158.544 119.782 158.544C119.417 158.625 118.93 158.341 118.241 157.773C117.592 157.205 117.267 156.718 117.186 156.435C117.146 155.988 117.511 154.974 118.362 153.393C119.214 151.851 119.579 150.594 119.457 149.621C119.417 149.256 119.295 148.972 119.174 148.81C119.011 148.647 118.808 148.566 118.525 148.607C118.403 148.607 118.241 148.81 118.038 149.175C117.876 149.54 117.592 150.026 117.348 150.756C116.862 152.054 116.456 153.068 116.132 153.758C115.848 154.407 115.645 154.772 115.523 154.853C114.793 155.137 114.306 155.461 114.063 155.826C113.86 156.191 113.739 156.759 113.739 157.57V158.097C113.576 158.665 113.414 159.193 113.211 159.679C113.049 160.166 112.846 160.572 112.644 160.977C112.603 161.139 112.562 161.22 112.481 161.302C112.4 161.383 112.279 161.464 112.157 161.464C112.076 161.464 112.076 161.464 112.035 161.464C111.995 161.423 111.995 161.383 111.954 161.302C111.954 161.18 111.954 160.937 111.995 160.531C112.035 160.166 112.116 159.598 112.197 158.949C112.319 158.219 112.441 157.53 112.522 156.8C112.603 156.07 112.725 155.38 112.846 154.65C112.968 153.758 113.09 152.946 113.293 152.257C113.455 151.527 113.617 150.959 113.779 150.472C114.59 148.242 115.158 146.417 115.483 144.875C115.807 143.334 115.929 142.198 115.807 141.387C115.685 140.657 115.523 140.13 115.199 139.765C114.915 139.4 114.509 139.278 114.023 139.359C113.941 139.359 113.82 139.4 113.779 139.481C113.698 139.562 113.617 139.643 113.576 139.765C113.374 140.252 113.211 140.738 113.049 141.266C112.887 141.793 112.765 142.361 112.684 142.929C112.684 143.131 112.603 143.294 112.562 143.456C112.481 143.618 112.441 143.74 112.4 143.821C112.319 144.024 112.197 144.47 112.035 145.078C111.873 145.687 111.67 146.457 111.467 147.431C111.224 148.444 111.062 149.296 110.94 149.905C110.778 150.554 110.697 151 110.656 151.284C110.453 151.608 110.251 152.054 110.007 152.622C109.804 153.19 109.561 153.879 109.318 154.691C109.115 155.258 108.953 155.786 108.75 156.272C108.507 156.718 108.263 157.124 107.939 157.449C107.776 157.651 107.655 157.854 107.533 157.976C107.411 158.138 107.33 158.26 107.29 158.422C107.249 158.584 107.209 158.706 107.168 158.787C107.128 158.828 106.681 159.355 106.519 159.517C106.357 159.72 106.195 159.923 106.032 160.085C105.789 160.328 105.586 160.49 105.384 160.612C105.181 160.734 104.937 160.774 104.735 160.815C104.572 160.815 104.41 160.815 104.248 160.774C104.126 160.734 104.005 160.693 103.964 160.531C103.883 160.45 103.761 160.207 103.558 159.72C103.356 159.233 103.234 158.909 103.072 158.665C102.991 158.26 102.869 157.895 102.747 157.53C102.626 157.124 102.504 156.8 102.342 156.394C102.179 155.988 101.936 155.704 101.612 155.542C101.287 155.38 100.922 155.299 100.476 155.38C100.314 155.421 100.151 155.461 100.03 155.583C99.8676 155.704 99.7459 155.826 99.6648 156.07C99.4215 156.597 98.8942 157.246 98.1642 158.057C97.4341 158.909 96.9474 159.558 96.6635 160.085L96.6229 160.288C96.6229 160.288 96.3796 160.653 96.2173 160.734C96.0956 160.815 95.974 160.855 95.8117 160.896C95.6089 160.937 95.4061 160.855 95.2034 160.693C95.0006 160.531 94.8384 160.288 94.6356 159.923C94.3517 159.274 94.0271 158.625 93.6621 157.935C93.3782 157.57 93.0943 157.327 92.8104 157.165C92.486 157.002 92.1209 156.962 91.7559 157.043C91.5531 157.043 91.3502 157.124 91.1069 157.286C90.8635 157.449 90.5797 157.611 90.2552 157.814C90.0119 158.057 89.7685 158.26 89.5657 158.462C89.3629 158.665 89.2007 158.868 89.0385 159.03C88.9573 159.193 88.8762 159.314 88.8357 159.395C88.7951 159.517 88.7139 159.639 88.6734 159.679C88.4706 159.882 88.3084 160.085 88.1462 160.328C87.984 160.531 87.9028 160.774 87.8217 160.977C87.5783 161.261 87.3755 161.504 87.1727 161.748C87.0105 161.991 86.8888 162.194 86.8077 162.397C86.7672 162.478 86.686 162.559 86.6454 162.64C86.6049 162.721 86.5644 162.762 86.4832 162.802C86.4021 162.721 86.321 162.64 86.321 162.559C86.321 162.478 86.321 162.397 86.321 162.275C86.321 162.153 86.3616 161.991 86.4021 161.829C86.4833 161.626 86.5238 161.383 86.6049 161.099C86.8888 159.72 87.0511 158.665 87.1322 157.814C87.2539 157.002 87.2539 156.435 87.2133 156.151C87.1322 155.623 86.97 155.258 86.7266 154.974C86.4833 154.731 86.1183 154.65 85.7127 154.731C85.2665 154.772 84.8609 154.934 84.4959 155.177C84.1309 155.421 83.8064 155.786 83.5224 156.232C83.198 156.759 82.8735 157.165 82.6302 157.57C82.3868 157.895 82.184 158.219 82.0218 158.462C81.6568 159.03 81.3323 159.517 81.0484 159.923C80.7645 160.328 80.5616 160.693 80.3588 160.937C80.1561 161.22 79.9533 161.464 79.7911 161.667C79.6288 161.869 79.4666 162.032 79.3855 162.153C79.3044 162.316 79.2232 162.478 79.1421 162.559C79.061 162.681 79.0204 162.762 78.9799 162.883V162.924C78.8177 163.046 78.696 163.208 78.5743 163.37C78.4526 163.532 78.2904 163.695 78.1687 163.816C77.9659 164.019 77.8037 164.181 77.682 164.262C77.5604 164.343 77.3981 164.425 77.2764 164.425C76.9114 164.506 76.4247 164.222 75.7758 163.654C75.1269 163.086 74.7618 162.64 74.7212 162.316C74.6401 161.869 75.0457 160.855 75.8974 159.274C76.7491 157.692 77.1142 156.435 76.9926 155.502C76.952 155.137 76.8302 154.853 76.7086 154.691C76.5463 154.528 76.3436 154.447 76.0597 154.488C75.938 154.528 75.7758 154.691 75.573 155.056C75.3702 155.421 75.1268 155.948 74.8429 156.637C74.3562 157.976 73.9506 158.949 73.6667 159.639C73.3422 160.328 73.1394 160.693 73.0583 160.734C72.3282 161.018 71.8416 161.342 71.5982 161.707C71.3549 162.072 71.2737 162.64 71.2737 163.451V163.978C71.1115 164.546 70.9493 165.074 70.7465 165.56C70.5842 166.047 70.3815 166.453 70.1787 166.858C70.1381 166.98 70.0975 167.142 70.0164 167.223C69.9353 167.304 69.8542 167.345 69.7325 167.385C69.6919 167.385 69.6108 167.385 69.6108 167.345C69.5702 167.304 69.5297 167.264 69.5297 167.183C69.5297 167.061 69.5297 166.818 69.5703 166.412C69.6109 166.047 69.6919 165.52 69.8136 164.871C69.9353 164.181 70.0164 163.451 70.1381 162.721C70.2192 162.032 70.3409 161.302 70.4626 160.612C70.6248 159.72 70.7465 158.909 70.9088 158.179C71.071 157.489 71.2332 156.881 71.3954 156.394C72.2066 154.204 72.7339 152.338 73.0989 150.837C73.3828 149.296 73.5045 148.12 73.3828 147.309C73.3017 146.579 73.0989 146.052 72.815 145.727C72.5311 145.362 72.1254 145.24 71.6387 145.321C71.5576 145.321 71.4765 145.362 71.3548 145.484C71.2737 145.565 71.2332 145.646 71.1521 145.768C70.9898 146.214 70.8276 146.741 70.6248 147.228C70.4625 147.755 70.3409 148.323 70.2598 148.931C70.2598 149.134 70.1786 149.296 70.1381 149.458C70.057 149.58 70.0164 149.702 69.9759 149.783C69.8948 150.026 69.773 150.432 69.6108 151.081C69.4486 151.689 69.2458 152.5 69.043 153.474C68.7997 154.488 68.5969 155.299 68.4752 155.948C68.3536 156.597 68.2724 157.083 68.2318 157.327C68.0291 157.651 67.8262 158.097 67.5829 158.665C67.3801 159.233 67.1367 159.923 66.8934 160.734C66.6906 161.302 66.4878 161.829 66.285 162.316C66.0822 162.762 65.7983 163.167 65.5144 163.492C65.3522 163.695 65.2305 163.857 65.1089 164.019C64.9872 164.181 64.906 164.343 64.8655 164.465C64.8249 164.627 64.7843 164.749 64.7438 164.83C64.7032 164.911 64.6627 164.952 64.6222 164.992C64.541 165.114 64.4193 165.236 64.2571 165.317C64.1354 165.398 64.0543 165.479 63.9732 165.52C63.6893 165.763 63.3648 165.925 62.9998 166.128C62.6348 166.29 62.1886 166.453 61.7425 166.534C61.4586 166.493 61.1747 166.493 60.9719 166.453C60.7285 166.412 60.5663 166.331 60.4446 166.29C60.2824 166.209 60.1201 166.088 59.9984 165.925C59.8767 165.722 59.7957 165.52 59.7551 165.276C59.7146 165.114 59.7551 164.992 59.7956 164.83C59.8362 164.709 59.9174 164.587 59.9579 164.465C60.8502 163.33 61.5396 162.356 62.0264 161.504C62.5131 160.653 62.797 159.923 62.8781 159.314L62.9592 158.706C62.9998 158.381 63.0403 158.179 63.0403 158.057C63.0403 157.895 63.0809 157.854 63.1214 157.976C63.0403 157.692 62.9592 157.408 62.8781 157.205C62.797 156.921 62.6348 156.678 62.5536 156.516C62.432 156.313 62.3103 156.191 62.2291 156.11C62.1075 155.988 61.9047 155.907 61.7019 155.867C61.4991 155.826 61.2558 155.826 60.9719 155.867C60.7691 155.907 60.5662 155.948 60.404 156.029C60.2012 156.11 60.039 156.191 59.9173 156.232C59.7551 156.394 59.6334 156.516 59.4711 156.597C59.3495 156.718 59.1873 156.84 59.1061 156.962C58.8628 157.327 58.6194 157.732 58.3761 158.097C58.1327 158.462 57.8894 158.827 57.6866 159.152C57.4432 159.679 57.281 160.166 57.1188 160.612C56.9971 161.018 56.8754 161.383 56.8348 161.667C56.7537 161.951 56.7132 162.234 56.6726 162.437C56.6321 162.681 56.5915 162.883 56.5915 163.086C56.5915 163.33 56.5915 163.573 56.5915 163.816V164.587C56.2671 164.911 56.0237 165.236 55.8209 165.52C55.6181 165.804 55.4559 166.128 55.3342 166.371C54.6041 167.183 54.0769 167.75 53.6713 168.197C53.2657 168.602 53.0224 168.845 52.9413 168.845C52.8196 168.886 52.7385 168.846 52.6574 168.724C52.5762 168.643 52.5356 168.48 52.4951 168.318C52.4545 168.075 52.4546 167.629 52.4546 167.02C52.4546 166.371 52.4951 165.52 52.5357 164.465C52.6979 163.127 52.8196 161.951 52.9413 161.018C53.0629 160.044 53.1846 159.233 53.3062 158.584C53.3468 158.341 53.3468 158.138 53.3468 157.935C53.3874 157.773 53.3873 157.57 53.3873 157.449L54.6041 157.043C54.7663 157.002 54.8069 156.759 54.8475 156.394C54.8475 155.988 54.807 155.421 54.6853 154.691C54.6447 154.488 54.6447 154.366 54.6041 154.244C54.5635 154.123 54.4824 154.082 54.4013 154.042C54.3202 153.96 54.2391 153.92 54.1985 153.879C54.158 153.839 54.1175 153.798 54.0769 153.758C54.0769 153.514 54.1174 153.149 54.2391 152.663C54.3608 152.216 54.3608 151.811 54.3608 151.527C54.2797 151.162 54.158 150.919 53.9957 150.756C53.8335 150.594 53.5902 150.513 53.3062 150.594C52.779 150.675 52.3329 151.324 52.0084 152.541C51.7245 153.758 51.3189 154.407 50.9133 154.488L50.3049 154.407C50.1021 154.447 49.9399 154.528 49.8183 154.569C49.656 154.609 49.4937 154.65 49.3721 154.731C49.2504 154.691 49.0476 154.691 48.8043 154.691C48.5609 154.691 48.277 154.731 47.9525 154.772C47.7903 154.812 47.628 154.893 47.4252 154.974C47.1819 154.974 46.9385 154.934 46.6141 154.974C46.3302 154.974 46.0057 155.015 45.6407 155.056C45.3162 155.096 45.0729 155.339 44.9512 155.786C44.8295 156.191 44.8295 156.8 44.9512 157.611C44.9512 157.692 45.0323 157.814 45.1134 157.854C45.1945 157.935 45.3162 157.976 45.4784 158.016C45.5595 158.057 45.6812 158.057 45.8029 158.097C45.9246 158.097 46.0463 158.179 46.168 158.219C46.2491 158.219 46.4519 158.179 46.6547 158.179C46.898 158.138 47.0602 158.138 47.1413 158.138L49.4532 157.854C49.5343 157.854 49.656 157.814 49.8183 157.732C49.9805 157.651 50.1021 157.651 50.1832 157.611C50.2644 157.57 50.3455 157.611 50.386 157.651C50.4266 157.692 50.4671 157.732 50.4671 157.814C50.3455 158.138 50.2644 158.422 50.1832 158.665C50.1021 158.909 50.021 159.071 49.9399 159.233C49.3315 160.815 48.6826 162.194 48.0336 163.411C47.3441 164.627 46.6546 165.682 45.884 166.655C45.7623 166.858 45.6407 167.061 45.5596 167.223C45.4785 167.385 45.3973 167.507 45.3162 167.629L45.2756 167.791C45.1134 167.953 44.9107 168.156 44.7484 168.359C44.5862 168.562 44.3833 168.724 44.2616 168.927C44.0588 169.129 43.8156 169.332 43.6128 169.413C43.41 169.535 43.1666 169.576 42.9638 169.616C42.8015 169.657 42.6393 169.616 42.4771 169.616C42.3554 169.576 42.2338 169.494 42.1932 169.373C42.1121 169.332 41.9904 169.048 41.7876 168.562C41.5848 168.075 41.4631 167.75 41.3414 167.507C41.2603 167.142 41.0981 166.736 40.9764 166.371C40.8548 166.006 40.6925 165.641 40.5709 165.276C40.4086 164.871 40.1653 164.546 39.8408 164.384C39.5163 164.222 39.1513 164.181 38.7051 164.222C38.5429 164.222 38.4213 164.303 38.259 164.384C38.0968 164.506 37.9751 164.668 37.894 164.871C37.6506 165.357 37.1639 166.047 36.3933 166.858C35.6632 167.71 35.1766 168.359 34.8926 168.845V169.048L34.8116 169.17C34.5682 169.454 34.3654 169.697 34.1626 169.859C33.9598 170.062 33.7976 170.224 33.6759 170.346C33.1486 170.59 32.7836 170.792 32.4591 170.914C32.1347 171.076 31.9724 171.117 31.9318 171.117C30.999 171.238 30.2689 171.036 29.7011 170.508C29.1333 169.981 28.7683 169.089 28.6061 167.913C28.9305 167.264 29.2144 166.574 29.4983 165.844C29.7011 165.398 29.9039 164.992 30.1067 164.668C30.3095 164.303 30.4312 164.06 30.5529 163.816C30.634 163.532 30.7151 163.33 30.7557 163.127C30.7962 162.924 30.8773 162.762 30.9179 162.64C31.0396 162.356 31.1612 162.113 31.2829 161.91C31.364 161.707 31.4857 161.545 31.5263 161.383C31.6479 161.099 31.7291 160.815 31.7697 160.612C31.8102 160.409 31.8507 160.206 31.8913 160.044C31.9724 159.801 32.0941 159.598 32.1752 159.395C32.2564 159.193 32.3374 159.03 32.4185 158.909C32.5402 158.422 32.6213 157.935 32.7024 157.489C32.743 157.083 32.8242 156.718 32.8647 156.394C32.9864 156.029 33.0675 155.745 33.108 155.461C33.1486 155.177 33.2297 154.974 33.2297 154.812L33.1892 154.569C33.2298 154.447 33.2297 154.325 33.2297 154.244C33.1891 153.96 33.2297 153.595 33.3108 153.19C33.3919 152.784 33.392 152.5 33.392 152.257C33.392 152.054 33.3514 151.73 33.392 151.324C33.392 150.919 33.392 150.594 33.3514 150.391C33.2297 149.621 33.0675 149.134 32.743 148.891C32.4186 148.647 31.9319 148.566 31.2424 148.688C30.8773 148.728 30.5123 149.053 30.1473 149.58C29.7823 150.107 29.3361 150.919 28.9305 151.973C28.6061 152.744 28.3221 153.514 28.0788 154.244C27.8354 154.974 27.6732 155.704 27.511 156.353C27.3893 156.759 27.3082 157.124 27.1865 157.408C27.1054 157.732 27.0243 158.016 26.9026 158.219C26.6998 159.395 26.497 160.49 26.3753 161.504C26.2131 162.518 26.0914 163.451 26.0914 164.303L26.2536 164.627C26.1725 164.79 26.1319 165.195 26.1319 165.844C26.0914 166.493 26.1319 166.98 26.1319 167.264C26.2131 167.345 26.2131 167.467 26.2536 167.629C26.2536 167.75 26.2942 167.832 26.2942 167.913C26.2942 167.953 26.2536 168.034 26.213 168.075L25.1586 169.332C24.9963 169.535 24.8746 169.778 24.7935 169.981C24.7124 170.184 24.6313 170.346 24.5502 170.468C24.4285 170.59 24.3068 170.711 24.2257 170.792C24.1446 170.873 24.0229 170.914 23.9418 170.914C23.8607 170.914 23.7795 170.914 23.6984 170.833C23.6173 170.792 23.5362 170.671 23.4956 170.549C23.5767 170.387 23.6984 170.224 23.8201 169.941C23.9418 169.657 24.023 169.373 24.0635 168.967C24.1446 168.602 24.1851 168.278 24.1851 168.034C24.2257 167.71 24.1851 167.507 24.1851 167.264C24.0229 166.169 23.6984 165.398 23.1711 164.911C22.6439 164.425 21.9544 164.262 21.0621 164.384C20.981 164.384 20.7782 164.465 20.4943 164.587C20.2104 164.749 19.7643 164.952 19.2776 165.236L19.1153 165.074C19.2369 164.79 19.3181 164.465 19.3993 164.181C19.3587 164.06 19.2775 163.978 19.1153 163.938C18.9936 163.897 18.7908 163.897 18.5069 163.938C18.2635 163.978 18.0608 164.06 17.858 164.181C17.6552 164.303 17.4929 164.465 17.2901 164.668C17.1685 164.871 17.0062 165.074 16.8845 165.276C16.7629 165.479 16.6007 165.682 16.4385 165.885C16.3168 166.047 16.1546 166.209 16.0329 166.371C15.8706 166.534 15.7084 166.696 15.5867 166.899C15.3839 167.101 15.2623 167.304 15.1406 167.507C15.0189 167.71 14.9378 167.872 14.8972 168.034C14.8567 168.075 14.8161 168.115 14.735 168.197C14.8161 167.994 14.8567 167.832 14.8972 167.629C15.1406 166.655 15.1811 165.479 14.9783 164.141C14.8566 163.411 14.6944 162.721 14.4916 162.153C14.2888 161.545 14.0455 160.977 13.7211 160.49C13.4777 160.044 13.1127 159.598 12.7071 159.152C12.2609 158.665 11.7336 158.179 11.1252 157.611C11.0441 157.53 10.9225 157.449 10.8413 157.327C10.7602 157.246 10.6791 157.205 10.6386 157.165C10.233 156.881 9.86794 156.637 9.62459 156.435C9.38124 156.232 9.21902 156.11 9.13791 155.988C8.52953 155.704 8.12396 155.461 7.84005 155.218C7.55614 154.974 6.90714 154.691 5.85261 154.366C5.48759 154.244 5.12258 154.163 4.75755 154.042C4.39252 153.92 4.06801 153.839 3.70299 153.717L3.1352 153.798C3.01353 153.717 2.77014 153.636 2.48623 153.555C2.1212 153.595 1.59402 154.082 0.945077 154.974C0.25558 155.867 -0.0689094 156.475 0.0122079 156.84C0.0122079 156.921 0.0932658 157.083 0.2555 157.286C0.417735 157.489 0.701705 157.773 1.02617 158.138C1.35064 158.544 1.63455 158.868 1.83735 159.152C2.04014 159.395 2.20232 159.639 2.28343 159.801L2.04014 165.763L2.24293 166.412C2.20238 166.818 2.2024 167.223 2.16184 167.548C2.16184 167.872 2.12124 168.156 2.12124 168.318C2.1618 169.008 2.16178 169.535 2.20234 169.9C2.20234 170.265 2.20234 170.508 2.20234 170.59C2.16178 171.32 2.1618 172.05 2.12124 172.78C2.12124 172.901 2.20232 173.104 2.28343 173.347C2.36455 173.591 2.40517 173.794 2.44573 173.915C2.52684 174.402 2.24291 174.808 1.71565 175.173C1.14783 175.538 0.904478 175.781 0.904478 175.943C0.904478 176.065 0.985596 176.187 1.10727 176.308C1.22895 176.389 1.3912 176.471 1.63455 176.552C1.79679 176.633 1.959 176.714 2.12124 176.754C2.28347 176.836 2.44569 176.876 2.60792 176.917L2.85131 177.971C2.7702 178.58 2.72958 179.107 2.68902 179.512C2.64846 179.918 2.64846 180.283 2.68902 180.526C2.8107 181.378 2.97295 183.122 3.2163 183.528C3.45965 183.933 3.78418 184.096 4.18977 184.055C4.39256 184.014 4.59536 183.893 4.79815 183.69C5.00094 183.487 5.2037 183.203 5.36593 182.838C5.52816 182.514 5.64984 182.27 5.77152 182.027C5.89319 181.784 5.97429 180.364 6.05541 180.121C5.73094 179.837 5.52813 179.553 5.32533 179.31C5.1631 179.066 5.04144 178.823 5.04144 178.62C5.00088 178.052 4.9603 177.444 4.91975 176.836C4.83863 175.903 4.83863 175.416 4.91975 175.335C5.00086 175.294 5.2037 175.213 5.56872 175.173C5.6904 175.173 5.85261 175.092 6.05541 174.929C6.2582 174.808 6.54217 174.645 6.82608 174.443C7.92117 173.794 8.93507 173.226 9.90848 172.699C10.3952 172.415 10.8008 172.171 11.1658 171.969C10.5575 172.901 12.0581 173.469 13.4371 172.334C13.6804 172.131 13.7615 172.009 13.8426 172.009C13.9643 172.009 14.0455 172.009 14.086 172.05C14.1266 172.09 14.2077 172.171 14.2077 172.252C14.2077 172.334 14.1672 172.658 14.1266 173.145C14.0455 173.631 14.0455 174.037 14.086 174.361C14.1672 175.092 14.5322 175.659 15.1811 176.187C15.83 176.714 16.479 176.876 17.1685 176.795C17.2902 176.754 17.4119 176.714 17.5741 176.673C17.7769 176.592 17.858 176.552 17.9391 176.552C18.1419 176.511 18.3447 176.471 18.5881 176.349C18.8314 176.227 19.0748 176.065 19.3993 175.862C19.886 175.578 20.332 175.254 20.7376 174.848C21.1026 174.443 21.4271 174.037 21.6705 173.591C21.7922 173.834 21.995 173.996 22.1978 174.118C22.4006 174.199 22.6439 174.28 22.9278 174.199C23.1712 174.159 23.4146 174.078 23.6579 173.956C23.8607 173.794 24.1445 173.591 24.3879 173.347C24.5907 173.145 24.7935 172.942 24.9558 172.739C25.1586 172.536 25.3208 172.293 25.5236 172.09C25.8075 171.766 26.0103 171.522 26.1725 171.238C26.3348 170.995 26.497 170.792 26.6592 170.59C26.7809 170.671 26.862 170.752 26.9431 170.833C27.0242 170.914 27.0648 170.995 27.1054 171.117C27.4299 172.171 27.8354 172.982 28.3627 173.429C28.8899 173.915 29.4983 174.118 30.1878 174.037C30.3906 173.996 30.7151 173.996 31.1207 173.996C31.5263 173.956 31.8102 173.956 32.0129 173.915C32.378 173.875 32.743 173.713 33.1486 173.51C33.5136 173.307 33.8787 172.982 34.2032 172.617C34.4871 172.293 34.7709 171.969 35.0548 171.644C35.3388 171.279 35.6227 170.995 35.9066 170.63H35.866C36.2716 170.062 36.5961 169.616 36.9206 169.292C37.2451 168.967 37.4479 168.805 37.6507 168.805C37.7318 168.805 37.8128 168.845 37.975 168.967C38.0967 169.089 38.259 169.292 38.4212 169.535C38.5835 169.697 38.7051 169.819 38.8268 169.981C38.9485 170.103 39.0296 170.224 39.1107 170.306C39.6785 171.401 40.1247 172.09 40.4898 172.293C40.8548 172.496 41.5848 172.536 42.7205 172.374C42.9233 172.334 43.1666 172.252 43.4911 172.009C43.8155 171.766 44.2211 171.441 44.6672 171.036C45.0728 170.63 45.4379 170.306 45.7218 170.022C46.0057 169.738 46.249 169.454 46.4113 169.251C46.4924 169.048 46.6141 168.886 46.6547 168.764C46.7358 168.643 46.7763 168.562 46.8169 168.48C47.3847 167.75 47.912 167.061 48.4798 166.412C48.8448 166.006 49.1287 165.601 49.3721 165.236C49.6154 164.871 49.8182 164.546 49.9399 164.222L50.1021 164.1C50.2238 164.141 50.2644 164.181 50.3049 164.262C50.1833 164.627 50.1022 164.952 50.021 165.236C50.021 165.722 50.021 166.209 49.9804 166.696C49.9804 166.98 49.9804 167.223 49.9804 167.466C49.9804 167.669 49.9804 167.832 49.9804 167.953C49.9399 168.034 49.9399 168.115 49.8994 168.237C49.8182 168.562 49.8183 169.008 49.8183 169.535C49.8588 170.062 49.8994 170.671 50.021 171.36C50.1022 172.009 50.305 172.455 50.6294 172.739C50.9133 173.023 51.3594 173.145 51.8867 173.064C52.13 173.023 52.3735 172.942 52.6574 172.739C52.9007 172.577 53.1846 172.293 53.4279 171.928C53.5902 171.685 53.793 171.401 53.9552 171.117C54.1175 170.833 54.3202 170.549 54.523 170.306C54.7258 170.062 54.888 169.819 55.0097 169.657C55.1719 169.454 55.2936 169.292 55.4153 169.129C55.6992 168.886 55.9426 168.643 56.1453 168.44C56.3481 168.237 56.4699 168.075 56.5915 167.872V167.832C56.7132 167.669 56.8349 167.507 56.916 167.385C57.0377 167.264 57.1187 167.223 57.2404 167.223C57.3621 167.183 57.4838 167.264 57.6055 167.385C57.7272 167.507 57.8489 167.669 58.0111 167.913C58.2139 168.237 58.3355 168.48 58.4978 168.724C58.66 168.967 58.7817 169.089 58.944 169.211C59.1873 169.413 59.5117 169.576 59.9173 169.657C60.2824 169.738 60.6879 169.738 61.1341 169.697C61.4586 169.657 61.783 169.576 62.0264 169.494C62.2697 169.413 62.4725 169.292 62.6347 169.17C63.1214 169.089 63.6081 168.845 64.1354 168.44C64.6626 167.994 65.2305 167.426 65.8389 166.615C66.0012 166.331 66.0823 166.128 66.1228 166.047C66.1634 165.925 66.204 165.885 66.2445 165.844C66.5284 165.398 66.7717 165.033 66.9745 164.749C67.1773 164.465 67.3395 164.181 67.5018 163.938L67.6641 164.1C67.7046 164.303 67.7046 164.506 67.6641 164.79C67.6641 165.074 67.6234 165.357 67.5829 165.722C67.4612 166.493 67.3801 167.183 67.3801 167.872C67.3801 168.521 67.4207 169.17 67.5018 169.738C67.5829 170.306 67.7452 170.711 68.0697 170.995C68.313 171.238 68.7185 171.32 69.2052 171.279C69.5297 171.238 69.7731 171.076 69.9353 170.833C70.1381 170.549 70.3003 170.306 70.422 170.062C70.5437 169.859 70.7059 169.697 70.8276 169.576C70.9492 169.454 71.0304 169.332 71.071 169.211C71.2737 168.927 71.436 168.643 71.5982 168.318C71.7605 168.034 71.9633 167.75 72.1255 167.466C72.4094 167.02 72.7339 166.534 73.1395 166.047C73.18 166.047 73.7072 166.331 74.6806 166.98C75.654 167.588 76.3435 167.872 76.7086 167.832C77.0736 167.791 77.3981 167.669 77.7225 167.466C78.047 167.264 78.3715 166.939 78.696 166.534C78.9799 166.25 79.2232 165.925 79.4666 165.601C79.7099 165.276 79.9939 164.952 80.2372 164.627L80.1966 164.587C80.2778 164.465 80.3588 164.343 80.3588 164.262C80.3994 164.181 80.44 164.1 80.44 164.019C80.6428 163.776 80.805 163.613 80.9267 163.411C81.0484 163.248 81.17 163.086 81.2917 163.005C81.3728 162.924 81.4946 162.802 81.6568 162.559C81.8596 162.316 82.0623 161.991 82.3868 161.585C82.6301 161.22 82.8329 160.977 82.9952 160.815C83.1574 160.612 83.3197 160.531 83.4413 160.531C83.563 160.531 83.6847 160.531 83.7252 160.572C83.8064 160.612 83.8469 160.653 83.8469 160.774C83.8875 160.855 83.8875 160.937 83.8469 161.058C83.8469 161.18 83.8063 161.342 83.8063 161.504C83.7658 161.667 83.7252 161.829 83.7252 161.91C83.6847 162.032 83.6847 162.113 83.6847 162.153C83.5225 163.208 83.4008 164.181 83.2385 164.952C83.1169 165.722 82.9952 166.412 82.8736 166.939C82.9547 167.264 83.0358 167.629 83.1575 167.953C83.2386 168.278 83.5224 168.399 84.0091 168.359C84.2525 168.318 84.4959 168.278 84.6581 168.197C84.8609 168.115 85.0231 167.994 85.1448 167.832C85.2665 167.669 85.4287 167.507 85.5504 167.345C85.672 167.142 85.8343 166.98 85.956 166.818C86.4832 166.088 86.9293 165.479 87.2538 164.952C87.6188 164.425 87.8622 164.019 87.9839 163.695C88.0245 163.532 88.1867 163.37 88.3895 163.208C88.6328 163.046 88.9573 162.681 89.444 162.153C89.6874 161.869 89.8901 161.667 90.0929 161.464C90.2957 161.302 90.4985 161.139 90.7419 161.058L90.9041 161.099C91.2286 161.423 91.5125 161.667 91.7559 161.91C91.9992 162.153 92.2021 162.316 92.4048 162.478C92.6482 162.843 92.8509 163.127 93.0537 163.411C93.216 163.613 93.3782 163.776 93.4999 163.857C93.7027 164.1 93.9461 164.222 94.23 164.343C94.5139 164.425 94.7572 164.425 95.0817 164.384C95.325 164.343 95.5683 164.262 95.7711 164.141C96.0145 164.019 96.2579 163.776 96.5012 163.492C96.704 163.289 96.8663 163.086 97.0691 162.883C97.2719 162.681 97.4341 162.478 97.6369 162.275C98.0425 161.707 98.367 161.22 98.6914 160.937C98.9753 160.612 99.2186 160.45 99.4214 160.409C99.5025 160.409 99.5837 160.45 99.7459 160.572C99.8676 160.693 100.03 160.896 100.233 161.139C100.354 161.302 100.516 161.423 100.638 161.585C100.76 161.707 100.841 161.788 100.922 161.91C101.49 163.046 101.936 163.695 102.301 163.897C102.666 164.1 103.396 164.141 104.532 163.978C104.694 163.938 104.978 163.816 105.302 163.573C105.627 163.33 106.033 163.046 106.479 162.599C106.884 162.194 107.249 161.869 107.533 161.585C107.817 161.302 108.06 161.018 108.223 160.815C108.385 160.531 108.466 160.328 108.507 160.247C108.547 160.166 108.588 160.085 108.628 160.004C108.872 159.558 109.155 159.233 109.358 158.909C109.561 158.625 109.764 158.341 109.886 158.138L110.007 158.3C110.048 158.462 110.048 158.706 110.007 158.99C110.007 159.274 109.967 159.558 109.926 159.923C109.804 160.653 109.723 161.383 109.723 162.072C109.723 162.721 109.723 163.37 109.845 163.978C109.926 164.546 110.088 164.952 110.372 165.195C110.656 165.439 111.021 165.52 111.549 165.439C111.873 165.398 112.116 165.276 112.279 164.992C112.441 164.749 112.644 164.465 112.765 164.222C112.887 164.019 113.049 163.857 113.171 163.735C113.293 163.613 113.374 163.492 113.414 163.37C113.617 163.086 113.779 162.802 113.941 162.518C114.104 162.234 114.266 161.951 114.469 161.667C114.753 161.18 115.077 160.734 115.483 160.247C115.564 160.206 116.051 160.531 117.024 161.18C117.997 161.829 118.646 162.113 119.052 162.072C119.417 161.991 119.741 161.869 120.066 161.667C120.39 161.464 120.715 161.18 121.039 160.774C121.323 160.45 121.567 160.125 121.81 159.801C122.053 159.476 122.337 159.152 122.58 158.828C122.499 158.584 124.527 155.664 123.838 155.339ZM10.598 169.535C10.4763 169.697 10.2329 169.9 9.98958 170.184C9.78678 170.387 9.62463 170.549 9.46239 170.671C9.30016 170.833 9.13789 170.955 9.01621 171.036C8.69174 171.238 8.40785 171.441 8.12394 171.603C7.84003 171.766 7.55614 172.009 7.23167 172.212C6.78552 172.536 6.37992 172.78 6.09601 172.942C5.8121 173.104 5.5687 173.185 5.44703 173.185C5.36591 173.185 5.28485 173.185 5.20374 173.104C5.12262 173.064 5.08204 172.942 5.08204 172.82C5.00092 172.293 5.00088 171.563 5.04144 170.671C5.082 169.778 5.1631 168.683 5.32533 167.385L5.08204 166.655C5.20372 166.29 5.36597 165.236 5.60932 163.492C5.85267 161.748 5.93377 160.774 5.89321 160.531C5.8121 159.801 4.91975 158.827 3.2974 157.53C3.2974 157.449 3.29744 157.367 3.338 157.367C3.37856 157.327 3.41908 157.286 3.50019 157.286C3.94634 157.408 4.31139 157.57 4.63585 157.651C5.00088 157.773 5.28477 157.814 5.52813 157.895C5.69036 158.016 5.81208 158.138 5.97431 158.219C6.09599 158.341 6.25818 158.422 6.3393 158.462C7.31271 159.071 8.08334 159.639 8.69172 160.125C9.25954 160.612 9.70573 161.058 9.94908 161.383C10.0302 161.545 10.1519 161.707 10.2736 161.829C10.3547 161.91 10.4763 162.032 10.5575 162.072C10.6386 162.153 10.7196 162.234 10.8008 162.316C10.8819 162.356 10.9224 162.437 10.9224 162.518L11.0441 162.964C11.3281 163.411 11.5309 163.897 11.6931 164.343C11.8554 164.79 11.977 165.236 12.0581 165.682C12.1392 166.453 12.1393 167.101 11.8959 167.71C11.6931 168.278 11.3687 168.805 10.8819 169.251C10.8414 169.292 10.7196 169.373 10.598 169.535ZM21.5894 170.062C21.5894 170.306 21.5489 170.549 21.5083 170.711C21.4677 170.873 21.4272 170.995 21.3055 171.076C21.1838 171.32 21.0216 171.563 20.8593 171.806C20.5348 172.496 20.1292 173.023 19.7237 173.388C19.2775 173.753 18.7908 173.996 18.223 174.078C17.858 174.118 17.6146 174.078 17.4118 173.915C17.209 173.753 17.0874 173.51 17.0468 173.185C17.0063 172.982 17.0063 172.78 17.0468 172.496C17.0874 172.212 17.1279 171.887 17.209 171.482C17.2902 171.036 17.3713 170.671 17.4929 170.427C17.6146 170.184 17.6957 170.062 17.8174 170.022C18.0202 169.941 18.1824 169.9 18.3041 169.778C18.4258 169.697 18.5881 169.535 18.6692 169.373C18.8314 169.008 18.9936 168.683 19.1153 168.359C19.1964 168.156 19.3181 167.994 19.3993 167.872C19.5209 167.75 19.5614 167.669 19.6426 167.629C20.0481 167.629 20.3321 167.629 20.5754 167.629C20.7782 167.669 20.9405 167.669 20.981 167.71C21.1027 167.75 21.1838 167.872 21.3055 168.075C21.4677 168.278 21.5894 168.562 21.7516 168.886L21.5894 170.062ZM28.4844 163.938C28.4438 163.776 28.4844 163.451 28.525 163.005C28.6061 162.559 28.6871 161.991 28.8494 161.261C29.0116 160.774 29.1333 160.328 29.2955 159.923C29.3767 159.598 29.4984 159.314 29.5389 159.071C29.5795 158.868 29.62 158.706 29.5794 158.625C29.5389 158.097 29.62 157.489 29.8633 156.84C30.1472 156.191 30.5529 155.542 31.1613 154.772L31.2829 154.812C31.2829 155.056 31.2424 155.299 31.2424 155.542C31.2018 155.786 31.2018 156.029 31.2424 156.272C31.2424 156.556 31.1207 157.327 30.8368 158.503C30.5529 159.679 30.35 160.409 30.1878 160.693C30.0256 161.099 29.8634 161.504 29.7417 161.829C29.5795 162.153 29.4578 162.397 29.4172 162.64C29.255 163.086 29.1333 163.411 29.0116 163.654C28.89 163.897 28.7682 164.019 28.6466 164.06L28.4844 163.938ZM59.6334 162.153C59.5523 162.316 59.4712 162.397 59.3495 162.397C59.2279 162.437 59.1873 162.397 59.1467 162.397C59.1062 162.356 59.0656 162.316 59.0656 162.234C59.025 161.91 59.1873 161.342 59.5523 160.612C59.9174 159.841 60.2012 159.436 60.4851 159.395C60.5662 159.395 60.6473 159.395 60.6879 159.476C60.7285 159.558 60.7691 159.639 60.7691 159.72C60.8097 159.882 60.7691 160.085 60.7285 160.247C60.6474 160.45 60.6068 160.612 60.4446 160.815C60.3635 160.977 60.2418 161.099 60.1607 161.261C60.039 161.423 59.9579 161.586 59.8362 161.707C59.7957 161.869 59.7145 161.991 59.6334 162.153Z" fill="#00426D"/>
<path fill-rule="evenodd" clip-rule="evenodd" d="M114.185 15.899C114.753 14.5606 115.037 13.0599 115.037 11.5187C115.037 5.15095 109.845 0 103.478 0C97.1101 0 91.9591 5.15095 91.9591 11.5187C91.9591 11.7215 91.9592 11.9242 91.9997 12.127H22.1172C9.94957 12.127 0.0126953 22.0639 0.0126953 34.1909V113.848C0.0126953 125.975 9.94957 135.912 22.1172 135.912H101.896C114.023 135.912 124 125.975 124 113.848V34.2315C124 26.6065 120.066 19.8737 114.185 15.899Z" fill="#00426D"/>
<path fill-rule="evenodd" clip-rule="evenodd" d="M110.25 49.36V74.0196V98.7199V123.38H96.7438V110.157L95.9326 112.591L94.9186 114.984L93.7424 117.215L92.404 119.243L91.674 120.135L90.9033 120.946L89.2404 122.244L88.3482 122.731L87.4153 123.136L86.4824 123.339L85.5091 123.38H71.7596L68.7177 101.437L75.5722 101.6L77.6812 101.559L79.7903 101.437L81.8993 100.991L82.9132 100.667L83.8055 100.221L84.2111 99.7338L84.5356 99.1254L84.8195 98.5576L85.0223 97.9087L85.144 97.1786L85.1846 96.408L85.144 94.7857L84.8601 93.0822L84.3734 91.3382L83.8055 89.5536L83.116 87.8501L75.2071 72.1134L81.4126 60.1486L82.2644 58.2018L82.9538 56.4983L83.3999 54.9571L83.7244 53.5781L83.8055 52.3208L83.765 51.2662L83.6027 50.3334L83.2783 49.5222L82.8321 48.8327L82.2644 48.2649L81.5748 47.8187L80.7636 47.4537L79.9119 47.1698L78.9791 47.0076L77.9245 46.8859H76.8294H71.354L71.5568 50.4956L71.5974 54.1459L71.4757 57.7962L71.1512 61.4465L70.7457 65.0156L70.1779 68.5037L69.4884 71.7889L69.0828 73.3301L68.7177 74.8308L68.231 76.4126L67.6227 77.9944L66.2437 81.3202L65.4325 83.0642L64.5808 84.8082L62.5528 88.3368L61.4983 90.162L60.3627 91.9466L57.8886 95.5563L55.2929 99.0849L53.9138 100.829L52.5754 102.573V123.38H41.584V111.618L39.191 123.38H13.7607V98.7199V74.0196V49.36V24.7003H27.2668L27.1857 63.1094L27.1451 101.6H41.584V76.2098V50.8606H52.5754V76.6965L53.6705 74.8308L54.9684 72.5595L56.2662 70.0449L57.5236 67.3275L58.6592 64.4884L59.592 61.6087L59.9976 60.1486L60.241 58.7696L60.4032 57.35L60.4843 56.0521L60.3627 53.0508L59.9976 50.9012L59.6731 50.1711L59.3487 49.5628L58.9431 49.0761L58.497 48.7516L57.4019 48.4271L56.104 48.346L52.8998 48.4677H38.5015L41.584 24.822H55.9823L57.3613 24.8625L58.7403 25.1059L59.9165 25.4304L61.1333 25.9171L62.2283 26.5255L63.2423 27.215L64.2563 28.0261L65.108 28.959L66.0003 29.9324L66.7304 31.1086L68.0688 33.5421L68.6772 34.9211L69.2044 36.3406L69.6912 37.8008L70.0562 39.3825L72.0841 24.7003H83.3188L84.6573 24.7814L85.9146 25.1059L87.0502 25.552L88.1859 26.1199L89.2809 26.931L90.2544 27.8639L91.1873 28.959L91.9984 30.1757L92.8096 31.4736L93.4991 32.8932L94.0669 34.475L94.5536 36.0973L94.9591 37.8008L95.2431 39.5853L95.4459 41.451L95.4864 43.3573L95.4053 47.6971L95.1214 51.5096L94.6348 54.9976L94.3508 56.7011L94.0264 58.2829L93.2152 61.4465L92.2823 64.61L90.011 71.4239L91.4712 74.8308L93.2557 79.2517L95.1214 84.4838L96.0137 87.3229L96.7438 90.2836V57.4717V24.7003H110.25V49.36Z" fill="white"/>
<path fill-rule="evenodd" clip-rule="evenodd" d="M103.476 21.334C98.082 21.334 93.6611 16.9131 93.6611 11.5188C93.6611 6.12451 98.082 1.70361 103.476 1.70361C108.871 1.70361 113.292 6.12451 113.292 11.5188C113.332 16.9131 108.911 21.334 103.476 21.334Z" fill="#ED1C24"/>
<path d="M40.492 153.555C40.8165 153.514 41.0192 153.555 41.1815 153.636C41.3437 153.757 41.4248 153.92 41.4654 154.122C41.4248 154.487 41.4248 154.771 41.3843 155.015C41.3437 155.461 41.2625 155.866 41.222 156.15C41.1408 156.434 41.1004 156.637 41.1004 156.759C41.0192 157.043 40.8976 157.286 40.7759 157.529C40.6136 157.773 40.4109 157.976 40.1675 158.178C39.9241 158.381 39.6808 158.584 39.5185 158.665C39.3563 158.746 39.2346 158.827 39.1535 158.827C38.9507 158.827 38.7479 158.827 38.5452 158.827C38.3829 158.827 38.1801 158.868 37.9773 158.908C37.815 158.827 37.6529 158.665 37.5312 158.462C37.369 158.219 37.3284 157.894 37.2473 157.489C37.2067 157.124 37.369 156.637 37.734 156.029C38.099 155.42 38.464 155.055 38.7884 154.974C38.9507 154.69 39.1535 154.366 39.3968 154.001C39.5185 153.92 39.6402 153.798 39.843 153.717C40.0458 153.636 40.2486 153.555 40.492 153.555Z" fill="#ED1C24"/>
<path d="M102.218 144.997C102.542 144.957 102.745 144.997 102.907 145.078C103.069 145.2 103.15 145.362 103.191 145.605C103.15 145.971 103.15 146.254 103.15 146.457C103.069 146.903 103.029 147.268 102.948 147.593C102.907 147.877 102.867 148.08 102.826 148.201C102.745 148.485 102.623 148.769 102.501 148.972C102.339 149.175 102.136 149.418 101.893 149.621C101.65 149.864 101.447 150.026 101.244 150.107C101.041 150.189 100.92 150.27 100.879 150.27C100.676 150.27 100.474 150.27 100.271 150.31C100.068 150.31 99.9058 150.351 99.703 150.351C99.5407 150.27 99.3784 150.148 99.2568 149.905C99.1351 149.661 99.0134 149.337 98.9729 148.931C98.9323 148.566 99.0945 148.08 99.4596 147.471C99.8246 146.863 100.149 146.498 100.514 146.417C100.676 146.133 100.879 145.808 101.123 145.443C101.244 145.362 101.366 145.24 101.569 145.159C101.731 145.078 101.974 145.038 102.218 144.997Z" fill="#ED1C24"/>
</svg>
